<svg xmlns="http://www.w3.org/2000/svg" width="152.44" height="37.697" viewBox="0 0 152.44 37.697"><defs><style>.a{fill:#a4a4a4;}</style></defs><g transform="translate(-28.66 -382.33)"><path class="a" d="M531.1,389.951c.021-.035.045-.035.074,0l-.043.035Z" transform="translate(-421.959 -6.378)"/><path class="a" d="M286.191,440.907c.463-1.4.9-2.723,1.331-4.035a.321.321,0,0,1,.3-.223,30.1,30.1,0,0,1,7.013-.684,9.551,9.551,0,0,1,4.716,1.317,6.243,6.243,0,0,1,2.97,5.286,18.991,18.991,0,0,1-.32,3.825c-.383,2.573-.777,5.142-1.147,7.714a.6.6,0,0,1-.362.5,14.92,14.92,0,0,1-4.828,1.557,21.642,21.642,0,0,1-6.3.16,7.574,7.574,0,0,1-4.645-2.047,5.686,5.686,0,0,1,.46-8.368,10.1,10.1,0,0,1,4.458-1.946,25.956,25.956,0,0,1,7.4-.259c.309.022.376-.072.391-.348a3.41,3.41,0,0,0-3.085-3.692,12.1,12.1,0,0,0-4.187.192A25.47,25.47,0,0,0,286.191,440.907Zm8.663,5.827a16.524,16.524,0,0,0-2.633.194,5.376,5.376,0,0,0-2.616,1.033,2.706,2.706,0,0,0-.918,2.7,2.286,2.286,0,0,0,1.69,1.783,4.994,4.994,0,0,0,1.225.264,13.416,13.416,0,0,0,4.533-.489.416.416,0,0,0,.362-.418c.2-1.514.405-3.029.63-4.54.038-.261-.048-.311-.266-.352a13.117,13.117,0,0,0-2.007-.175Z" transform="translate(-213.849 -45.025)"/><path class="a" d="M659.068,451.217c-.256.779-.481,1.475-.718,2.172-.189.572-.391,1.139-.57,1.716a.455.455,0,0,1-.356.359,19.383,19.383,0,0,1-7.464.689,8.353,8.353,0,0,1-6.728-4.246,9.417,9.417,0,0,1-1.062-5.257,11.809,11.809,0,0,1,4.4-8.637,10.227,10.227,0,0,1,5.675-2.275,11.709,11.709,0,0,1,4.325.28,6.957,6.957,0,0,1,5.191,6.031,17.648,17.648,0,0,1-.277,5.078c-.034.21-.139.216-.3.216H647.636c-.3,0-.389.074-.394.383a4.262,4.262,0,0,0,3.823,4.605,13.806,13.806,0,0,0,5.385-.344A20.771,20.771,0,0,0,659.068,451.217Zm-6.535-7.144h3.588c1.1,0,1.1,0,1.133-1.1a3.434,3.434,0,0,0-3.487-3.788,5.733,5.733,0,0,0-5.767,4.6c-.053.235,0,.293.24.292C649.667,444.066,651.091,444.073,652.532,444.073Z" transform="translate(-515.215 -44.786)"/><path class="a" d="M767.8,456.56a22.2,22.2,0,0,1-6.917-1.153c-.223-.077-.282-.141-.2-.383q.549-1.664,1.052-3.345c.083-.276.181-.253.4-.147a11.264,11.264,0,0,0,6.909.974,3.5,3.5,0,0,0,1.525-.625,1.7,1.7,0,0,0,.189-2.641,6.048,6.048,0,0,0-1.358-.948c-1.225-.686-2.472-1.328-3.636-2.122a5.1,5.1,0,0,1,.333-8.555,10.065,10.065,0,0,1,4.447-1.466,19.594,19.594,0,0,1,7.726.939c.231.069.29.131.2.376-.38,1.052-.746,2.111-1.091,3.176-.091.28-.2.259-.417.16a11.407,11.407,0,0,0-5.047-1.089,4.212,4.212,0,0,0-2.387.66,1.648,1.648,0,0,0-.689,1.876,1.887,1.887,0,0,0,.742.943,19.353,19.353,0,0,0,2.4,1.379,20.063,20.063,0,0,1,2.835,1.8,5.215,5.215,0,0,1-.16,8.115,10.09,10.09,0,0,1-5.581,2.013C768.569,456.539,768.061,456.547,767.8,456.56Z" transform="translate(-614.738 -45.13)"/><path class="a" d="M875.986,456.527a22.251,22.251,0,0,1-6.825-1.142c-.255-.085-.32-.16-.226-.429.362-1.086.7-2.178,1.038-3.274.08-.266.16-.3.42-.179a11.32,11.32,0,0,0,6.875.977,3.777,3.777,0,0,0,1.411-.525,1.705,1.705,0,0,0,.295-2.794,5.868,5.868,0,0,0-1.245-.857,41.7,41.7,0,0,1-3.819-2.242,5.053,5.053,0,0,1-.735-7.474,7.837,7.837,0,0,1,4.2-2.243,15.733,15.733,0,0,1,6.391.029c.9.16,1.775.4,2.653.641.292.082.4.168.274.5-.37,1-.706,2.02-1.033,3.043-.091.28-.183.32-.458.2a11.474,11.474,0,0,0-4.975-1.088,4.441,4.441,0,0,0-2.273.553,1.676,1.676,0,0,0-.151,2.9,20.6,20.6,0,0,0,2.593,1.488,16.933,16.933,0,0,1,2.84,1.86,5.225,5.225,0,0,1-.282,7.929,9.427,9.427,0,0,1-4.466,1.909,16.518,16.518,0,0,1-2.5.213Z" transform="translate(-705.644 -45.097)"/><path class="a" d="M432.07,451.764a9.1,9.1,0,0,1-.44,1.365c-.29.863-.6,1.719-.886,2.584a.421.421,0,0,1-.378.32,24.26,24.26,0,0,1-5.818.376,8.943,8.943,0,0,1-7.13-3.764,9.146,9.146,0,0,1-1.531-5.831,11.266,11.266,0,0,1,4.387-8.538,10.541,10.541,0,0,1,5.361-2.124,18.259,18.259,0,0,1,7.261.434c.452.123.887.3,1.331.44.16.051.2.12.143.295-.378,1.105-.753,2.214-1.107,3.327-.078.245-.189.2-.348.133a11.508,11.508,0,0,0-3.548-.831,7.15,7.15,0,0,0-6.579,2.773,6.539,6.539,0,0,0-.13,7.543,5.757,5.757,0,0,0,3.99,2.148,12.861,12.861,0,0,0,5.068-.609c.106-.03.213-.051.32-.077Z" transform="translate(-325.187 -45.049)"/><path class="a" d="M545.929,451.786c-.368,1.06-.791,2.11-1.094,3.192a1.464,1.464,0,0,1-1.451,1.251,19.94,19.94,0,0,1-7.208-.127,8.428,8.428,0,0,1-6.452-7.937,11.214,11.214,0,0,1,4.836-10.176,10.342,10.342,0,0,1,4.879-1.784,18.314,18.314,0,0,1,7.259.432c.439.12.86.3,1.3.426.229.067.235.171.16.372-.367,1.072-.73,2.143-1.072,3.223-.082.258-.179.248-.389.168a11.188,11.188,0,0,0-5.207-.8,6.615,6.615,0,0,0-6.01,5.358,5.625,5.625,0,0,0,1.687,5.667,6.376,6.376,0,0,0,4.823,1.453,15.351,15.351,0,0,0,3.694-.7C545.753,451.786,545.817,451.727,545.929,451.786Z" transform="translate(-420.786 -45.094)"/><path class="a" d="M64.121,402.284,44.167,382.33v3.063l16.891,16.891.006.006L46.434,416.921l-.018-.018-14.621-14.62-.013-.013,7.178-7.178H35.844l-7.184,7.184.006.006L46.41,420.027l.006-.006L64.137,402.3Z" transform="translate(0 0)"/><path class="a" d="M71.371,414.61v3.063L83.1,429.4l-9.447,9.447-9.455-9.454-.013-.013L71.36,422.2H68.244l-7.184,7.184.006.006,11.019,11.019,1.541,1.541,1.567-1.565L86.17,429.409Z" transform="translate(-27.21 -27.109)"/><path class="a" d="M107.822,468.025l-5.851-5.858-1.557-1.557-1.531,1.531L93,468.018h0l5.885,5.885,1.541,1.541,1.563-1.565,5.848-5.839Zm-7.368,4.325-4.325-4.325-.013-.013,4.314-4.314,4.325,4.325h0Z" transform="translate(-54.034 -65.741)"/></g></svg>