<svg xmlns="http://www.w3.org/2000/svg" width="228.148" height="42.108" viewBox="0 0 228.148 42.108"><defs><style>.a{fill:#a4a4a4;}</style></defs><path class="a" d="M21.054,0H9.254L9.232.041,7.6,3.007H21.054A18.045,18.045,0,1,1,3.882,15.5H7.328A14.807,14.807,0,1,0,21.054,6.249H5.825L4.175,9.255H21.054A11.8,11.8,0,1,1,10.643,15.5h3.9a8.555,8.555,0,1,0,6.508-3.007H2.4L.745,15.5A21.054,21.054,0,1,0,21.054,0Zm0,15.5A5.553,5.553,0,1,1,15.5,21.054,5.553,5.553,0,0,1,21.054,15.5Zm30.308,6c0-5.849,3.924-9.959,9.809-9.959A9.075,9.075,0,0,1,69.316,15.8L65.911,18.2a5.217,5.217,0,0,0-4.628-2.518c-3.182,0-5.293,2.261-5.293,5.812,0,3.517,2.11,5.812,5.293,5.812a5.252,5.252,0,0,0,4.628-2.555l3.405,2.406c-1.555,2.7-4.516,4.258-8.144,4.258C55.287,31.42,51.363,27.31,51.363,21.5Zm18.593,0a9.921,9.921,0,1,1,19.843,0,9.921,9.921,0,0,1-19.843,0Zm15.215,0c0-3.443-2.036-5.849-5.293-5.849s-5.294,2.406-5.294,5.849c0,3.405,2.036,5.812,5.294,5.812S85.171,24.9,85.171,21.5Zm34.272-9.442L113.666,30.9h-4.878L104.7,17.61,100.585,30.9H95.7L89.957,12.057h4.481l3.9,13.586,4.191-13.586h4.336l4.192,13.586,3.866-13.586Zm63.46,0L177.121,30.9h-4.878L168.16,17.61,164.04,30.9h-4.875L153.42,12.061H157.9l3.9,13.586,4.187-13.59h4.336l4.192,13.586,3.867-13.586Zm-49.944-.072V16.2a13.852,13.852,0,0,0-2.073-.185c-3.295,0-5.035,1.666-5.035,5.59V30.9h-4.514V12.057h4.438V15.2a5.744,5.744,0,0,1,5.553-3.48A4.68,4.68,0,0,1,132.959,11.985Zm18.737.072V29.012c0,6.331-3.517,9.809-9.737,9.809A11.83,11.83,0,0,1,134,36.193l2.036-3.295a9.245,9.245,0,0,0,5.664,1.888c3.48,0,5.553-1.962,5.553-5.777V27.384a6.661,6.661,0,0,1-6.146,3.332c-4,0-6.515-2.517-6.515-7.108V12.057h4.516v10.4c0,2.888,1.185,4.146,3.553,4.146,2.74,0,4.554-1.665,4.554-4.406V12.057ZM184.091,6.1a2.868,2.868,0,0,1,5.734,0,2.868,2.868,0,0,1-5.734,0Zm.63,5.96h4.516V30.9h-4.516Zm6.789,15.77,2.443-2.851a8.4,8.4,0,0,0,6.182,2.591c2.147,0,3.331-.814,3.331-2,0-1-.741-1.628-2.628-2.073l-3.073-.7c-3.924-.925-5.59-2.74-5.59-5.331,0-3.48,2.887-5.923,7.774-5.923a10.175,10.175,0,0,1,7.736,3l-2.406,2.924a8.152,8.152,0,0,0-5.442-2.073c-2.11,0-3.146.778-3.146,1.926,0,.888.629,1.443,2.628,1.887l3.258.778c3.96.888,5.4,2.7,5.4,5.293,0,3.739-2.888,6.146-7.885,6.146C196.359,31.42,193.213,30.013,191.51,27.828Zm36.529-5H214.007A5.14,5.14,0,0,0,219.56,27.5a6.64,6.64,0,0,0,5.256-2.369l2.7,2.666a9.924,9.924,0,0,1-8.107,3.628c-6,0-10-3.924-10-9.847,0-5.849,3.851-10.032,9.552-10.032,5.478,0,9.18,3.813,9.18,9.551a14.211,14.211,0,0,1-.109,1.74ZM214.007,19.76h9.629a4.266,4.266,0,0,0-4.627-4.294A4.749,4.749,0,0,0,214.007,19.76Z"/></svg>