<svg xmlns="http://www.w3.org/2000/svg" width="148.376" height="31.72" viewBox="0 0 148.376 31.72"><defs><style>.a{fill:#a4a4a4;fill-rule:evenodd;}</style></defs><path class="a" d="M116.151,31.295l-5.91-21.728-8.759,20.112a4.346,4.346,0,0,1-1.148,1.531,2.505,2.505,0,0,1-1.616.51,2.875,2.875,0,0,1-2.764-2.041L88.867,14.287l.5,17.008h-5.4V2.211A2.566,2.566,0,0,1,86.642,0a2.84,2.84,0,0,1,1.573.468,2.866,2.866,0,0,1,1.148,1.361l9.525,21.855,9.524-21.855A2.653,2.653,0,0,1,111.006,0,2.6,2.6,0,0,1,113.6,2.211l7.909,29.084ZM15.01,31.437a14.992,14.992,0,0,1-6-1.191A15.631,15.631,0,0,1,4.252,26.93a15.7,15.7,0,0,1-3.146-5.017A17.356,17.356,0,0,1,0,15.662,16.8,16.8,0,0,1,1.106,9.454,13.777,13.777,0,0,1,9.014,1.63a16,16,0,0,1,6-1.106H31.763v5.4H15.01a9.718,9.718,0,0,0-3.869.765A8.887,8.887,0,0,0,8.121,8.731a9.475,9.475,0,0,0-2,3.147A10.9,10.9,0,0,0,5.4,15.917a11.112,11.112,0,0,0,.723,4.039,9.863,9.863,0,0,0,2,3.232,9.427,9.427,0,0,0,3.019,2.084,9.718,9.718,0,0,0,3.869.765H28.233V18H14.287v-4.55H33.676V31.437Zm23.075,0V.525h5.4V31.437Zm18.309-1.191a14.992,14.992,0,0,0,6,1.191H81.056V13.451H61.667V18H75.613v8.036H62.39a9.719,9.719,0,0,1-3.869-.765A9.428,9.428,0,0,1,55.5,23.188a9.864,9.864,0,0,1-2-3.232,11.113,11.113,0,0,1-.723-4.039,10.9,10.9,0,0,1,.723-4.039,9.476,9.476,0,0,1,2-3.147A8.887,8.887,0,0,1,58.52,6.69a9.719,9.719,0,0,1,3.869-.765H79.142V.525H62.39a16,16,0,0,0-6,1.106,13.777,13.777,0,0,0-7.909,7.824,16.8,16.8,0,0,0-1.105,6.208,17.356,17.356,0,0,0,1.105,6.25,15.7,15.7,0,0,0,3.146,5.017A15.632,15.632,0,0,0,56.394,30.246Zm82.034-2a3.014,3.014,0,0,1-3.112,3.317H135.3a2.975,2.975,0,0,1-3.1-3.227,3.038,3.038,0,0,1,3.189-3.3A2.955,2.955,0,0,1,138.428,28.248Zm-3.98.051c0,.982.267,1.684.893,1.684h.012c.561,0,.83-.714.83-1.684,0-.855-.229-1.684-.842-1.684C134.666,26.615,134.448,27.469,134.448,28.3Zm-2.657,1.378a2.088,2.088,0,0,1-.88.153,1.394,1.394,0,0,1-1.416-1.556,1.368,1.368,0,0,1,1.391-1.531,2.391,2.391,0,0,1,.867.14l.293-1.646a4.127,4.127,0,0,0-1.287-.191,3.2,3.2,0,0,0-3.5,3.317,2.956,2.956,0,0,0,3.215,3.189,4.485,4.485,0,0,0,1.53-.23Zm-6.281,1.888a1.226,1.226,0,0,0,1.263-1.314,1.241,1.241,0,0,0-1.25-1.327,1.258,1.258,0,0,0-1.263,1.327,1.235,1.235,0,0,0,1.238,1.314Zm13.694-.128h2.156V27.75a1.287,1.287,0,0,1,.063-.459.7.7,0,0,1,.638-.472c.5,0,.65.485.65,1.072v3.546h2.156V27.75a1.477,1.477,0,0,1,.051-.434.669.669,0,0,1,.65-.5c.472,0,.65.459.65,1.2v3.419h2.156v-3.75c0-1.658-.676-2.653-1.99-2.653a2.3,2.3,0,0,0-1.046.242,2.615,2.615,0,0,0-.8.7h-.026a1.63,1.63,0,0,0-1.595-.944,2.1,2.1,0,0,0-1.759.893h-.039l-.1-.765h-1.862c.026.6.051,1.314.051,2.092ZM118.769,5.216h-1.1V1.867h-.989V.917h3.1v.95h-1.008Zm5.819,0h-1.046l-.057-1.486c-.012-.44-.026-1-.026-1.607h-.019c-.108.536-.273,1.148-.388,1.556l-.389,1.448h-.842l-.338-1.441c-.1-.408-.223-1.014-.306-1.563h-.013c-.018.4-.036.823-.052,1.193v.013l-.011.254-.006.148-.065,1.486h-.994l.287-4.3h1.391l.281,1.218c.115.5.236,1.046.319,1.563h.019c.1-.51.236-1.091.35-1.569l.306-1.212h1.371Z"/></svg>