<svg xmlns="http://www.w3.org/2000/svg" width="174.719" height="43" viewBox="0 0 174.719 43"><defs><style>.a{fill:#a4a4a4;}</style></defs><g transform="translate(-12.41 -380)"><path class="a" d="M20.645,395.9a28.5,28.5,0,0,0,7.783,3.979l2.607-15.294-8.915.073ZM19,405.357,15.67,426.169h8.641L26.8,410.481C23.727,409.039,21.857,408.514,19,405.357Z" transform="translate(-2.676 -3.768)"/><path class="a" d="M177.851,386.38l-2.591,16.474,8.806-1.19,1.833-12.151,0-.011.088-.582h.005l.412-2.541Z" transform="translate(-133.673 -5.237)"/><path class="a" d="M254.789,386.38h-5.783l-.455,2.562,5.814.057c.538-.036,5.554.674,5,6.4-.095.985-1.263,5.171-1.811,5.8,2.813.527,4.825.9,6.678,2a11.3,11.3,0,0,0,4.384-7.21C269.951,387.113,262.3,386.38,254.789,386.38Z" transform="translate(-193.832 -5.237)"/><path class="a" d="M229.455,526c.5,2.816.8,4.732-.611,8.211-1.355,3.341-5.685,5.629-7.778,5.506L214,539.7l-.376,2.091h8.018c10.7.693,14.625-3.189,17.291-9.7C237.885,530.065,237.093,527.161,229.455,526Z" transform="translate(-165.16 -119.842)"/><path class="a" d="M156.134,533.311l-2.064,13.608h8.611l.43-2.752.039-.254L164.9,532.25Z" transform="translate(-116.279 -124.972)"/><path class="a" d="M12.41,442.4s10.677,8.448,22.444,8.448,13.42-2.318,24.062-2.318c10.918,0,16.408,3.2,15.432,12.542,0,0-1.792-5.855-13.144-5.855s-13.572,2.829-24.7,2.829S15.947,453.806,12.41,442.4Z" transform="translate(0 -51.22)"/><path class="a" d="M443.98,381h3.076l-.976,6.884h8.084l.973-6.884h3.076l-2.437,17.277H452.7l1.075-7.618H445.69l-1.075,7.618H441.54Z" transform="translate(-352.244 -0.821)"/><path class="a" d="M544.845,417.584a2.572,2.572,0,0,0,2.759,2.782,4.5,4.5,0,0,0,3.368-1.586l1.879,1.589a7.112,7.112,0,0,1-5.3,2.343c-3.54,0-6.006-2.465-5.493-6.153a7.188,7.188,0,0,1,7.228-6.151c3.272,0,5.174,2.3,4.588,6.371l-.1.806Zm6.3-2.2c.22-1.707-.731-2.782-2.562-2.782a3.494,3.494,0,0,0-3.444,2.782Z" transform="translate(-434.7 -24.962)"/><path class="a" d="M620.866,410.654H623.8l-.244,1.856h.048a4.4,4.4,0,0,1,3.763-2.15,3.489,3.489,0,0,1,1.025.17L628,413.363a5.5,5.5,0,0,0-1.39-.22,3.5,3.5,0,0,0-3.565,2.954l-.878,6.271H619.23Z" transform="translate(-498.098 -24.921)"/><path class="a" d="M674.146,385.733h2.931l-1.636,11.719H672.51ZM676.391,380a1.532,1.532,0,0,1,1.661,1.758,2.143,2.143,0,0,1-2.15,1.758,1.538,1.538,0,0,1-1.612-1.758A2.15,2.15,0,0,1,676.391,380Z" transform="translate(-541.832)"/><path class="a" d="M707.25,398.964l.342-2.49h2.417l.489-3.393h2.929l-.489,3.39h3.225l-.342,2.49H712.6l-.717,5.128c-.17,1.172.073,1.9,1.367,1.9a3.426,3.426,0,0,0,1.636-.358l-.331,2.462a6.723,6.723,0,0,1-2.394.391c-3.1,0-3.637-1.39-3.246-4.15l.756-5.375Z" transform="translate(-570.348 -10.737)"/><path class="a" d="M766.566,420.789h-.072a4.893,4.893,0,0,1-4.029,1.9c-2.172,0-4.1-1.2-3.763-3.515.512-3.809,5-4.076,7.934-4.076h.733l.048-.319c.2-1.433-.8-2.2-2.367-2.2a5.4,5.4,0,0,0-3.322,1.22l-1.317-1.537a7.844,7.844,0,0,1,5.248-1.879c5.006,0,4.492,3.612,4.273,5.273l-.953,6.738h-2.632Zm.342-3.637H766.3c-1.613,0-4.393.122-4.637,1.806-.147,1.075.878,1.539,1.829,1.539a2.984,2.984,0,0,0,3.322-2.687Z" transform="translate(-612.55 -24.945)"/><path class="a" d="M843.318,410.67l-1.485,10.673c-.586,4.223-3.026,6.909-7.591,6.909a7.4,7.4,0,0,1-5.542-1.928l2.093-2.4a4.881,4.881,0,0,0,3.784,1.684c2.833,0,3.956-1.613,4.273-3.929l.122-.855h-.048a5.537,5.537,0,0,1-4.078,1.709c-3.515,0-5.443-2.687-4.979-6.007.487-3.465,3.026-6.151,6.64-6.151a3.856,3.856,0,0,1,3.736,2.05h.048l.244-1.758ZM832.8,416.506a2.863,2.863,0,0,0,2.953,3.393,3.9,3.9,0,0,0,3.981-3.442,2.783,2.783,0,0,0-2.98-3.444,3.926,3.926,0,0,0-3.954,3.5Z" transform="translate(-670.038 -24.937)"/><path class="a" d="M923.526,417.584a2.573,2.573,0,0,0,2.761,2.786,4.5,4.5,0,0,0,3.37-1.586l1.876,1.586a7.112,7.112,0,0,1-5.3,2.343c-3.54,0-6.006-2.465-5.493-6.153a7.188,7.188,0,0,1,7.228-6.151c3.272,0,5.174,2.3,4.588,6.371l-.1.806Zm6.3-2.2c.22-1.707-.733-2.782-2.564-2.782a3.493,3.493,0,0,0-3.442,2.782Z" transform="translate(-745.533 -24.962)"/><path class="a" d="M443.98,521.89h6.738c2.612,0,5.128,1.2,4.658,4.347a4.583,4.583,0,0,1-3.515,3.784l-.025.048a3.476,3.476,0,0,1,3.15,4.175c-.512,3.763-3.956,4.931-7.228,4.931H441.54Zm1,14.649h2.833c1.586,0,3.832-.269,4.149-2.539.244-1.808-.83-2.442-3.32-2.442H445.69Zm1.075-7.618h2.808c2.051,0,3.2-.878,3.393-2.172.2-1.489-.731-2.222-3.046-2.222h-2.546Z" transform="translate(-352.244 -116.468)"/><path class="a" d="M534.211,561.721h-.079a4.887,4.887,0,0,1-4.028,1.9c-2.173,0-4.1-1.2-3.763-3.515.512-3.809,5-4.078,7.934-4.078h.733l.048-.317c.2-1.433-.8-2.2-2.369-2.2a5.384,5.384,0,0,0-3.32,1.22L528.05,553.2a7.854,7.854,0,0,1,5.25-1.881c5.006,0,4.492,3.614,4.273,5.275l-.953,6.737h-2.627Zm.342-3.637h-.611c-1.612,0-4.393.122-4.637,1.806-.147,1.075.878,1.539,1.829,1.539a2.984,2.984,0,0,0,3.322-2.687Z" transform="translate(-421.821 -140.625)"/><path class="a" d="M603.146,551.654h2.784l-.245,1.879h.05a4.294,4.294,0,0,1,3.881-2.173c3.15,0,3.956,2.222,3.637,4.615l-1.05,7.4h-2.929l.831-5.932c.2-1.294.391-3.442-1.661-3.442a3.1,3.1,0,0,0-3.1,2.978l-.9,6.4H601.51Z" transform="translate(-483.553 -140.658)"/><path class="a" d="M682.317,515.35h2.929l-1.636,11.6,5.2-4.859h3.763l-5.762,5.321,4.443,6.4h-3.879l-3.831-5.977h-.048l-.83,5.981H679.73Z" transform="translate(-547.758 -111.1)"/></g></svg>