<svg xmlns="http://www.w3.org/2000/svg" xmlns:xlink="http://www.w3.org/1999/xlink" width="207.755" height="32" viewBox="0 0 207.755 32"><defs><style>.a{fill:none;}.b{clip-path:url(#a);}.c{fill:#a4a4a4;}</style><clipPath id="a"><path class="a" d="M58.327,103.083h1.394a3.213,3.213,0,0,0,3.387-2.525,11.088,11.088,0,0,1,2.1-4.17,10.557,10.557,0,0,1,15.516-.819,10.039,10.039,0,0,1,2.762,4.765,3.2,3.2,0,0,0,2.585,2.675,29.929,29.929,0,0,0,4.466.059c.433,0,.39-.357.383-.642a16.258,16.258,0,0,0-1.406-6.309,17.288,17.288,0,0,0-13.018-10.4,17.527,17.527,0,0,0-19.34,10.44,16.9,16.9,0,0,0-1.371,6.2c-.01.562.182.766.736.736C57.128,103.06,57.73,103.083,58.327,103.083Z" transform="translate(-55.783 -85.404)"/></clipPath></defs><g transform="translate(-55.783 -0.002)"><g transform="translate(55.783 0.002)"><g transform="translate(0 0)"><g class="b" transform="translate(0 14.279)"><g transform="translate(-9.327 -7.359)"><rect class="c" width="33.613" height="31.022" transform="translate(12.543 1.734)"/><path class="c" d="M180.279,48.272,166.854,41.39,150.21,67.717l15.917,8.161Z" transform="translate(-125.095 -41.39)"/><path class="c" d="M12.115,65.45,0,74.44,18.485,99.351,32.849,88.692Z" transform="translate(0 -61.427)"/></g></g><path class="c" d="M138.224,5.929a5.851,5.851,0,1,1-1.7-4.195A5.851,5.851,0,0,1,138.224,5.929Z" transform="translate(-114.78 -0.002)"/><g transform="translate(40.942 3.344)"><path class="c" d="M302.645,83.4a4.8,4.8,0,0,1-1.985-3.725h3.9a1.993,1.993,0,0,0,.849,1.577,3.341,3.341,0,0,0,1.991.555,3.241,3.241,0,0,0,1.881-.468,1.548,1.548,0,0,0,.669-1.351,1.351,1.351,0,0,0-.53-1.187,3.639,3.639,0,0,0-1.376-.545l-2.675-.642a6,6,0,0,1-3.284-1.689,4.157,4.157,0,0,1-1.048-2.851,4.464,4.464,0,0,1,1.759-3.69A7.142,7.142,0,0,1,307.366,68a7.051,7.051,0,0,1,4.539,1.386,4.65,4.65,0,0,1,1.8,3.657h-3.9a1.839,1.839,0,0,0-.694-1.5,2.827,2.827,0,0,0-1.819-.553,2.707,2.707,0,0,0-1.629.441,1.46,1.46,0,0,0-.6,1.256,1.266,1.266,0,0,0,.477,1.135,4.454,4.454,0,0,0,1.394.545l3.05.694a5.52,5.52,0,0,1,3.058,1.705,4.389,4.389,0,0,1,1,2.886,4.509,4.509,0,0,1-1.792,3.742,7.606,7.606,0,0,1-4.809,1.4A7.811,7.811,0,0,1,302.645,83.4Z" transform="translate(-300.66 -59.974)"/><path class="c" d="M396.319,71.985a7.357,7.357,0,0,1,2.962-2.946,8.92,8.92,0,0,1,4.358-1.047,8.49,8.49,0,0,1,5.424,1.707,6.523,6.523,0,0,1,2.494,4.564H407.5a3.476,3.476,0,0,0-1.378-2.07,4.281,4.281,0,0,0-2.52-.719A4.014,4.014,0,0,0,400.46,72.8a6.017,6.017,0,0,0-.035,7.129,3.948,3.948,0,0,0,3.145,1.338,4.309,4.309,0,0,0,2.607-.762,3.284,3.284,0,0,0,1.326-1.98h4.054a6.589,6.589,0,0,1-2.521,4.529,8.346,8.346,0,0,1-5.362,1.724,9,9,0,0,1-4.392-1.048,7.307,7.307,0,0,1-2.962-2.962,9.023,9.023,0,0,1-1.048-4.416A8.742,8.742,0,0,1,396.319,71.985Z" transform="translate(-379.452 -59.967)"/><path class="c" d="M513.4,20h3.968V30.366a4.815,4.815,0,0,1,2.028-1.715,6.566,6.566,0,0,1,2.842-.624,5.527,5.527,0,0,1,4.347,1.724,6.977,6.977,0,0,1,1.543,4.809v9.789h-3.968V35.474a3.878,3.878,0,0,0-.963-3.031,3.232,3.232,0,0,0-2.174-.836,4.217,4.217,0,0,0-2.556.836,3.28,3.28,0,0,0-1.134,2.824v9.079H513.4Z" transform="translate(-477.831 -20)"/><path class="c" d="M622.089,72.071a7.8,7.8,0,0,1,3.066-3,9.814,9.814,0,0,1,8.965,0,7.793,7.793,0,0,1,3.076,3,8.991,8.991,0,0,1,0,8.619,7.8,7.8,0,0,1-3.066,3.01,9.849,9.849,0,0,1-8.975,0,7.812,7.812,0,0,1-3.066-3,9.043,9.043,0,0,1,0-8.628Zm4.255,7.791a4.309,4.309,0,0,0,3.292,1.367,4.374,4.374,0,0,0,3.344-1.368,5.428,5.428,0,0,0,0-7,4.377,4.377,0,0,0-3.344-1.359,4.315,4.315,0,0,0-3.3,1.359,5.432,5.432,0,0,0,.01,7Z" transform="translate(-567.434 -59.966)"/><path class="c" d="M740.814,72.071a7.811,7.811,0,0,1,3.067-3,9.818,9.818,0,0,1,8.967,0,7.8,7.8,0,0,1,3.074,3,8.991,8.991,0,0,1,0,8.619,7.8,7.8,0,0,1-3.066,3.01,9.849,9.849,0,0,1-8.975,0,7.822,7.822,0,0,1-3.066-3,9.007,9.007,0,0,1,0-8.628Zm4.253,7.791a4.309,4.309,0,0,0,3.292,1.367,4.373,4.373,0,0,0,3.344-1.368,5.42,5.42,0,0,0,0-7A4.38,4.38,0,0,0,748.36,71.5a4.318,4.318,0,0,0-3.3,1.359,5.434,5.434,0,0,0,.008,7Z" transform="translate(-666.305 -59.966)"/><path class="c" d="M864,20h3.963V44.344H864Z" transform="translate(-769.812 -20)"/><path class="c" d="M925.522,68.5V84.315h-3.794V82.079a5.6,5.6,0,0,1-2.331,1.975,7.735,7.735,0,0,1-3.387.727,7.412,7.412,0,0,1-3.907-1.03,6.91,6.91,0,0,1-2.642-2.911,10.588,10.588,0,0,1,.052-8.82,7.158,7.158,0,0,1,2.77-2.979A7.87,7.87,0,0,1,916.356,68a7.768,7.768,0,0,1,3.249.659,5.579,5.579,0,0,1,2.3,1.849l.313-2.006Zm-5.276,11.348a4.964,4.964,0,0,0,1.256-3.511,4.892,4.892,0,0,0-1.222-3.474,4.664,4.664,0,0,0-6.492.012,4.945,4.945,0,0,0-1.221,3.491,5.014,5.014,0,0,0,1.221,3.5,4.15,4.15,0,0,0,3.205,1.338A4.269,4.269,0,0,0,920.247,79.844Z" transform="translate(-806.893 -59.969)"/><path class="c" d="M1049.252,29.072A7.316,7.316,0,0,1,1052,32.018a9.213,9.213,0,0,1,1,4.374,9.43,9.43,0,0,1-1,4.4,7.267,7.267,0,0,1-2.745,2.971,8.056,8.056,0,0,1-7.357.3,5.571,5.571,0,0,1-2.341-2.028l-.3,2.306H1036V20h3.934V30.189a5.35,5.35,0,0,1,2.2-1.593,8.007,8.007,0,0,1,3.08-.57,7.706,7.706,0,0,1,4.038,1.047ZM1047.719,39.9a4.983,4.983,0,0,0,1.22-3.5,4.966,4.966,0,0,0-1.22-3.491,4.623,4.623,0,0,0-6.464-.017,4.881,4.881,0,0,0-1.22,3.474,5.008,5.008,0,0,0,1.23,3.535,4.208,4.208,0,0,0,3.239,1.338,4.148,4.148,0,0,0,3.215-1.338Z" transform="translate(-913.054 -20)"/><path class="c" d="M1158.36,20h3.968V44.344h-3.968Z" transform="translate(-1014.956 -20)"/><path class="c" d="M1216.23,83.282a8.639,8.639,0,0,1-5.078,1.49,8.52,8.52,0,0,1-4.305-1.065,7.417,7.417,0,0,1-2.893-2.979,9.171,9.171,0,0,1-1.032-4.409,8.9,8.9,0,0,1,1.048-4.392,7.376,7.376,0,0,1,2.894-2.911,8.433,8.433,0,0,1,4.18-1.031,8.307,8.307,0,0,1,4.081.98,6.957,6.957,0,0,1,2.745,2.675,7.713,7.713,0,0,1,.97,3.9,9.257,9.257,0,0,1-.167,1.958h-11.851a3.981,3.981,0,0,0,1.256,2.9,4.348,4.348,0,0,0,3.075,1.1,5.034,5.034,0,0,0,2.453-.563,2.949,2.949,0,0,0,1.411-1.568h3.864A6.24,6.24,0,0,1,1216.23,83.282Zm-1.421-8.455a3.467,3.467,0,0,0-1.1-2.625,3.956,3.956,0,0,0-2.764-.961,4.2,4.2,0,0,0-2.859.98,3.5,3.5,0,0,0-1.2,2.607Z" transform="translate(-1052.068 -59.96)"/></g></g></g></g></svg>